<?xml version="1.0" encoding="UTF-8" standalone="no"?>
<!-- Created with Inkscape (http://www.inkscape.org/) -->

<svg
   version="1.1"
   id="svg2"
   xml:space="preserve"
   width="407.03625"
   height="398.99438"
   viewBox="0 0 407.03626 398.9944"
   sodipodi:docname="Logo vertical.svg"
   inkscape:version="1.1.2 (0a00cf5339, 2022-02-04)"
   xmlns:inkscape="http://www.inkscape.org/namespaces/inkscape"
   xmlns:sodipodi="http://sodipodi.sourceforge.net/DTD/sodipodi-0.dtd"
   xmlns="http://www.w3.org/2000/svg"
   xmlns:svg="http://www.w3.org/2000/svg"><defs
     id="defs6" /><sodipodi:namedview
     id="namedview4"
     pagecolor="#ffffff"
     bordercolor="#666666"
     borderopacity="1.0"
     inkscape:pageshadow="2"
     inkscape:pageopacity="0.0"
     inkscape:pagecheckerboard="true"
     showgrid="false"
     fit-margin-top="0"
     fit-margin-left="0"
     fit-margin-right="0"
     fit-margin-bottom="0"
     inkscape:showpageshadow="false"
     inkscape:zoom="0.64052331"
     inkscape:cx="202.95905"
     inkscape:cy="279.459"
     inkscape:window-width="1920"
     inkscape:window-height="1131"
     inkscape:window-x="0"
     inkscape:window-y="0"
     inkscape:window-maximized="1"
     inkscape:current-layer="g8" /><g
     id="g8"
     inkscape:groupmode="layer"
     inkscape:label="Logo vertical"
     transform="matrix(1.3333333,0,0,-1.3333333,-193.33226,841.66971)"><path
       d="m 437.4369,357.9284 -6.5251,3.4631 c -2.395,1.264 -4.0921,2.4409 -5.1531,3.5209 -0.98,0.9871 -1.4879,2.1782 -1.4879,3.6213 0,1.588 0.6349,2.7349 1.8501,3.5589 1.3238,0.904 2.888,1.5919 4.6749,1.3609 7.3302,-0.9329 15.0979,-6.4998 15.0979,-6.4998 v 10.9009 c 0,0 -2.0058,-2.6941 -5.455,-2.1529 -0.1088,0.0218 -1.2308,0.2659 -3.7479,1.0139 -2.4339,0.7438 -4.5839,1.139 -6.4381,1.139 -4.341,0 -7.9228,-1.137 -10.6458,-3.477 -2.7011,-2.3202 -4.041,-5.2381 -4.041,-8.678 0,-2.683 1.1718,-5.121 3.4259,-7.281 1.2161,-1.1331 2.8239,-2.238 4.7869,-3.3061 l 6.347,-3.399 c 3.6632,-1.9571 5.9483,-3.371 6.9852,-4.2619 1.5551,-1.3731 2.306,-2.9531 2.306,-4.7829 0,-2.0971 -0.777,-3.6252 -2.2462,-4.7112 -1.5149,-1.1378 -2.1169,-1.6809 -5.4329,-1.711 -6.891,-0.0519 -12.1309,4.1471 -15.09,7.3032 v -6.4471 c 3.0921,-2.1209 8.625,-5.0349 15.668,-5.0349 4.7809,0 8.7911,1.1749 11.9409,3.5909 3.168,2.416 4.7761,5.4559 4.7761,9.0629 0,2.6779 -0.8909,5.0451 -2.6901,7.041 -1.781,1.9341 -4.7829,3.9881 -8.9058,6.1659"
       style="fill:#21409a;fill-opacity:1;fill-rule:nonzero;stroke:none"
       id="path40" /><path
       d="m 152.2222,349.1804 c 0,-4.0407 0.6891,-7.3887 2.143,-9.9788 2.7071,-4.871 7.7771,-7.1951 14.8782,-7.1951 7.1798,0 12.2969,2.3581 15.004,7.2972 1.4539,2.6577 2.1368,6.2699 2.1368,10.7478 v 26.9122 h -11.84 c 4.6941,0 7.2232,-5.2932 7.2232,-10.2442 v -16.668 c 0,-4.0289 -0.502,-6.8669 -1.3952,-8.623 -1.582,-3.088 -4.6908,-4.744 -9.6968,-4.744 -4.515,0 -7.3712,1.5899 -8.8792,4.6091 -0.83,1.692 -1.275,4.1369 -1.275,7.42 l -0.004,28.2379 h -15.518 c 4.6922,0 7.223,-5.2909 7.223,-10.2359 z"
       style="fill:#21409a;fill-opacity:1;fill-rule:nonzero;stroke:none"
       id="path42" /><path
       d="m 246.0073,366.7079 v -33.7992 h 8.297 v 44.043 h -15.52 c 4.6962,0 7.223,-5.2908 7.223,-10.2438"
       style="fill:#21409a;fill-opacity:1;fill-rule:nonzero;stroke:none"
       id="path44" /><path
       d="m 355.2633,366.7079 v -18.809 l -23.2481,29.0528 h -13.3049 c 4.6981,0 7.2269,-5.2908 7.2269,-10.2438 v -33.7992 h 4.6151 v 32.5922 l 26.295,-32.5922 h 3.0331 v 44.043 h -11.842 c 4.6919,0 7.2249,-5.2908 7.2249,-10.2438"
       style="fill:#21409a;fill-opacity:1;fill-rule:nonzero;stroke:none"
       id="path46" /><path
       d="m 313.49,332.909 v 44.043 h -15.518 c 4.6959,0 7.223,-5.2908 7.223,-10.2438 V 332.909 Z"
       style="fill:#21409a;fill-opacity:1;fill-rule:nonzero;stroke:none"
       id="path48" /><path
       d="m 199.5525,366.7079 v -33.7992 h 4.6168 v 32.5922 l 26.2931,-32.5922 h 3.033 v 44.043 h -11.8389 c 4.6908,0 7.2219,-5.2908 7.2219,-10.2438 v -18.809 l -23.2481,29.0528 h -13.303 c 4.6962,0 7.2252,-5.2908 7.2252,-10.2438"
       style="fill:#21409a;fill-opacity:1;fill-rule:nonzero;stroke:none"
       id="path50" /><path
       d="m 389.3783,377.8543 c -5.9531,0 -11.0121,-1.963 -15.1172,-5.891 -4.485,-4.314 -6.6988,-10.025 -6.6988,-17.0478 0,-6.6881 2.0738,-12.2332 6.273,-16.5572 4.125,-4.2338 9.332,-6.3518 15.543,-6.3518 5.809,0 10.7988,1.9088 14.9218,5.7268 4.6171,4.2891 6.8981,10.055 6.8981,17.1822 0,7.0208 -2.2011,12.7219 -6.6679,17.013 -4.1051,3.9549 -9.1752,5.9258 -15.152,5.9258 z m 8.943,-37.3708 c -2.507,-2.9381 -5.474,-4.3592 -8.943,-4.3592 -3.551,0 -6.543,1.459 -9.025,4.47 -2.444,2.9871 -3.7482,7.6992 -3.7482,14.3212 0,6.6458 1.3042,11.357 3.7482,14.3218 2.507,3.031 5.5018,4.498 9.025,4.498 3.4058,0 6.3669,-1.412 8.918,-4.3319 2.484,-2.852 3.826,-7.6099 3.826,-14.4879 0,-6.7952 -1.3281,-11.5401 -3.801,-14.432"
       style="fill:#21409a;fill-opacity:1;fill-rule:nonzero;stroke:none"
       id="path52" /><path
       d="m 283.7886,337.9578 c -1.514,-1.139 -2.115,-1.6818 -5.436,-1.713 -6.8879,-0.051 -12.1278,4.1471 -15.0928,7.3052 v -6.4471 c 3.0968,-2.122 8.6309,-5.038 15.6739,-5.038 4.7809,0 8.7871,1.178 11.9389,3.594 3.17,2.416 4.775,5.455 4.775,9.0629 0,2.6791 -0.8898,5.0451 -2.687,7.041 -1.783,1.9329 -4.7868,3.9881 -8.9059,6.1682 l -6.5239,3.4588 c -2.3981,1.2651 -4.0961,2.4429 -5.1542,3.5229 -0.9828,0.9862 -1.4879,2.1782 -1.4879,3.6213 0,1.588 0.6341,2.7349 1.847,3.5609 1.328,0.902 2.8911,1.5899 4.6721,1.3629 7.338,-0.9369 15.1038,-6.5038 15.1038,-6.5038 v 10.8997 c 0,0 -2.0058,-2.6929 -5.457,-2.1498 -0.108,0.0179 -1.231,0.2639 -3.7479,1.01 -2.4319,0.7481 -4.5839,1.1398 -6.4381,1.1398 -4.3398,0 -7.922,-1.1358 -10.6438,-3.4758 -2.7,-2.3202 -4.043,-5.2401 -4.043,-8.678 0,-2.683 1.1729,-5.1191 3.4268,-7.2811 1.2172,-1.135 2.825,-2.2379 4.7871,-3.3049 l 6.3479,-3.4001 c 3.6581,-1.9571 5.9471,-3.371 6.984,-4.2619 1.5551,-1.3731 2.3071,-2.9532 2.3071,-4.7829 0,-2.0962 -0.7769,-3.6253 -2.2461,-4.7112"
       style="fill:#21409a;fill-opacity:1;fill-rule:nonzero;stroke:none"
       id="path54" /><path
       d="m 297.0425,412.3466 c 36.273,0 65.6739,29.3998 65.6739,65.6708 l 0.006,44.151 c -0.006,6.7969 0.326,41.1959 27.0249,50.8229 6.6989,2.4171 18.432,2.2541 19.3479,12.805 0.3881,4.46 1.9942,20.728 1.9942,20.728 2.8049,24.289 39.187,24.728 39.187,24.728 h -43.7361 c 0,0 -36.424,-0.4141 -39.232,-24.6999 0,0 -1.6061,-16.2712 -1.995,-20.7281 -0.9139,-10.55 -12.6477,-10.3881 -19.3507,-12.8069 -26.697,-9.627 -27.025,-43.378 -27.025,-50.8181 v -44.1819 c 0,-12.0892 -9.805,-21.892 -21.8951,-21.892 -12.088,0 -21.8908,9.8028 -21.8908,21.892 v 76.6167 h -43.7791 v -76.6167 c 0,-36.271 29.4001,-65.6708 65.6699,-65.6708"
       style="fill:#21409a;fill-opacity:1;fill-rule:nonzero;stroke:none"
       id="path56" /></g></svg>
